<svg height='300px' width='300px'  fill="#FFFFFF" xmlns="http://www.w3.org/2000/svg" xmlns:xlink="http://www.w3.org/1999/xlink" version="1.1" x="0px" y="0px" viewBox="0 0 100 100" enable-background="new 0 0 100 100" xml:space="preserve"><path d="M38.883,36.735l-4.771,4.771l-2.329-2.332c-0.613-0.611-1.605-0.611-2.216,0c-0.611,0.612-0.611,1.605,0,2.215l3.808,3.809  c0.53,0.53,0.946,0.53,1.478,0l6.246-6.249c0.611-0.612,0.611-1.604,0-2.215C40.485,36.123,39.494,36.123,38.883,36.735z"></path><path d="M68.451,39.969H45.707c-0.5,0-0.698,0.196-0.698,0.696v2.405c0,0.5,0.198,0.696,0.698,0.696h22.744  c0.501,0,0.696-0.195,0.696-0.696v-2.405C69.147,40.165,68.952,39.969,68.451,39.969z"></path><path d="M38.883,52.053l-4.771,4.771l-2.329-2.331c-0.613-0.612-1.605-0.612-2.216,0c-0.611,0.612-0.611,1.603,0,2.215l3.808,3.807  c0.53,0.531,0.946,0.531,1.478,0l6.246-6.248c0.611-0.611,0.611-1.603,0-2.215C40.485,51.441,39.494,51.441,38.883,52.053z"></path><path d="M68.451,55.287H45.707c-0.5,0-0.698,0.196-0.698,0.696v2.406c0,0.5,0.198,0.696,0.698,0.696h22.744  c0.501,0,0.696-0.196,0.696-0.696v-2.406C69.147,55.483,68.952,55.287,68.451,55.287z"></path><path d="M38.883,67.372l-4.771,4.771l-2.329-2.331c-0.613-0.612-1.605-0.612-2.216,0c-0.611,0.612-0.611,1.604,0,2.216l3.808,3.807  c0.53,0.531,0.946,0.531,1.478,0l6.246-6.248c0.611-0.612,0.611-1.604,0-2.215C40.485,66.759,39.494,66.759,38.883,67.372z"></path><path d="M68.451,70.605H45.707c-0.5,0-0.698,0.196-0.698,0.696v2.405c0,0.5,0.198,0.697,0.698,0.697h22.744  c0.501,0,0.696-0.197,0.696-0.697v-2.405C69.147,70.802,68.952,70.605,68.451,70.605z"></path><path d="M75.183,20.184h-9.453c-0.112-3.904-2.436-6.141-6.424-6.141h-0.946c-0.587,0-0.733-0.111-0.733-0.112  c-0.002-0.001-0.138-0.17-0.138-0.887v-0.556C57.488,8.079,54.409,5,50,5s-7.488,3.079-7.488,7.488v0.556  c0,0.716-0.136,0.885-0.137,0.886s-0.147,0.112-0.734,0.112h-0.946c-3.989,0-6.313,2.236-6.426,6.141h-9.451  c-5.829,0-8.429,2.6-8.429,8.431V86.57c0,5.83,2.6,8.43,8.429,8.43h50.365c5.829,0,8.429-2.6,8.429-8.43V28.615  C83.611,22.784,81.012,20.184,75.183,20.184z M37.192,20.478c0-2.486,1.015-3.5,3.502-3.5h0.946c1.736,0,3.806-0.683,3.806-3.934  v-0.556c0-3.357,2.353-4.553,4.554-4.553s4.554,1.196,4.554,4.553v0.556c0,3.251,2.069,3.934,3.806,3.934h0.946  c2.485,0,3.5,1.014,3.5,3.5v3.227c0,0.124-0.013,0.204-0.022,0.251c-0.047,0.01-0.127,0.022-0.251,0.022H37.468  c-0.125,0-0.205-0.012-0.253-0.022c-0.01-0.047-0.022-0.126-0.022-0.25V20.478z M80.677,86.57c0,4.211-1.284,5.495-5.494,5.495  H24.817c-4.21,0-5.494-1.284-5.494-5.495V28.615c0-4.212,1.284-5.496,5.494-5.496h9.44v0.586c0,1.979,1.229,3.208,3.21,3.208h25.064  c1.979,0,3.208-1.229,3.208-3.208v-0.586h9.442c4.21,0,5.494,1.284,5.494,5.496V86.57z"></path><circle cx="50" cy="12.184" r="2.483"></circle></svg>